<svg width="21" height="21" viewBox="0 0 21 21" fill="none" xmlns="http://www.w3.org/2000/svg">
<path d="M0.75 10.25C0.75 5.77166 0.75 3.53249 2.14124 2.14124C3.53249 0.75 5.77166 0.75 10.25 0.75C14.7283 0.75 16.9675 0.75 18.3588 2.14124C19.75 3.53249 19.75 5.77166 19.75 10.25C19.75 14.7283 19.75 16.9675 18.3588 18.3588C16.9675 19.75 14.7283 19.75 10.25 19.75C5.77166 19.75 3.53249 19.75 2.14124 18.3588C0.75 16.9675 0.75 14.7283 0.75 10.25Z" stroke="#20242C" stroke-width="1.5" stroke-linejoin="round"/>
<path d="M14.75 10.25C14.75 12.7353 12.7353 14.75 10.25 14.75C7.76472 14.75 5.75 12.7353 5.75 10.25C5.75 7.76472 7.76472 5.75 10.25 5.75C12.7353 5.75 14.75 7.76472 14.75 10.25Z" stroke="#20242C" stroke-width="1.5"/>
<path d="M15.7578 4.75L15.7488 4.75" stroke="#20242C" stroke-width="2" stroke-linecap="round" stroke-linejoin="round"/>
</svg>
